<svg xmlns="http://www.w3.org/2000/svg" data-name="Layer 1" viewBox="0 0 32 40" x="0px" y="0px"><title>Icon 1</title><path d="M20,21.77a3.33,3.33,0,0,1-2.32-.91,2.4,2.4,0,0,0-3.37,0,3.32,3.32,0,0,1-2.31.91,3.28,3.28,0,0,1-2.31-.91A2.41,2.41,0,0,0,8,20.17v-1a3.35,3.35,0,0,1,2.31.91,2.4,2.4,0,0,0,3.37,0,3.4,3.4,0,0,1,4.63,0,2.33,2.33,0,0,0,1.69.69,2.37,2.37,0,0,0,1.69-.69A3.33,3.33,0,0,1,24,19.17v1a2.37,2.37,0,0,0-1.69.69A3.3,3.3,0,0,1,20,21.77Z"/><path d="M20,23.27a3.33,3.33,0,0,1-2.32-.91,2.4,2.4,0,0,0-3.37,0,3.32,3.32,0,0,1-2.31.91,3.28,3.28,0,0,1-2.31-.91A2.41,2.41,0,0,0,8,21.67v-1a3.35,3.35,0,0,1,2.31.91,2.4,2.4,0,0,0,3.37,0,3.4,3.4,0,0,1,4.63,0,2.33,2.33,0,0,0,1.69.69,2.37,2.37,0,0,0,1.69-.69A3.33,3.33,0,0,1,24,20.67v1a2.37,2.37,0,0,0-1.69.69A3.3,3.3,0,0,1,20,23.27Z"/><path d="M11.16,19.78l9.49-9.49c.87,1.46,3,5.73.43,9.32l.14-.11a4.6,4.6,0,0,1,1.54-.89c1.77-4.51-1.57-9.34-1.61-9.4l-.35-.48L10.36,19.17l.42.33Z"/><path d="M12.36,18.58,9,15.27,15,9.34l3.32,3.31Zm-1.9-3.31,1.9,1.9,4.52-4.52L15,10.75Z"/><path d="M10.79,14.93,8.31,12.46,10.79,10l2.47,2.48ZM9.73,12.46l1.06,1.06,1.06-1.06L10.79,11.4Z"/><circle cx="12.88" cy="14.68" r="0.75"/><circle cx="14.44" cy="13.12" r="0.75"/><text x="0" y="47" fill="#000000" font-size="5px" font-weight="bold" font-family="'Helvetica Neue', Helvetica, Arial-Unicode, Arial, Sans-serif">Created by Ian Rahmadi Kurniawan</text><text x="0" y="52" fill="#000000" font-size="5px" font-weight="bold" font-family="'Helvetica Neue', Helvetica, Arial-Unicode, Arial, Sans-serif">from the Noun Project</text></svg>